<?xml version="1.0" encoding="iso-8859-1"?>
<!-- Generator: Adobe Illustrator 19.0.0, SVG Export Plug-In . SVG Version: 6.00 Build 0)  -->
<svg version="1.1" id="Capa_1" xmlns="http://www.w3.org/2000/svg" xmlns:xlink="http://www.w3.org/1999/xlink" x="0px" y="0px"
	 viewBox="0 0 512 512" style="enable-background:new 0 0 512 512;" xml:space="preserve">
<path style="fill:#656D78;" d="M208,356c4.398,0,8,3.602,8,8s-3.602,8-8,8s-8-3.602-8-8S203.602,356,208,356z"/>
<path style="fill:#FFCE54;" d="M296,348c-8.797,0-16,7.203-16,16s7.203,16,16,16s16-7.203,16-16S304.797,348,296,348z"/>
<g style="opacity:0.5;">
	<path style="fill:#FFFFFF;" d="M288,364c0-7.406,5.125-13.633,12-15.43c-1.281-0.336-2.609-0.57-4-0.57c-8.797,0-16,7.203-16,16
		s7.203,16,16,16c1.391,0,2.719-0.234,4-0.57C293.125,377.633,288,371.406,288,364z"/>
</g>
<g style="opacity:0.2;">
	<path d="M304,364c0,7.406-5.125,13.633-12,15.43c1.281,0.336,2.609,0.57,4,0.57c8.797,0,16-7.203,16-16s-7.203-16-16-16
		c-1.391,0-2.719,0.234-4,0.57C298.875,350.367,304,356.594,304,364z"/>
</g>
<path style="fill:#CCD1D9;" d="M328,396H184v-64h144V396z M208,372c4.398,0,8-3.602,8-8s-3.602-8-8-8s-8,3.602-8,8
	S203.602,372,208,372z M296,348c-8.797,0-16,7.203-16,16s7.203,16,16,16s16-7.203,16-16S304.797,348,296,348z"/>
<rect x="136" y="276" style="fill:#656D78;" width="240" height="24"/>
<path style="fill:#AC92EC;" d="M376,300v200h-16H152h-16V300H376z M328,396v-64H184v64H328z"/>
<path style="fill:#ED5565;" d="M256,228c4.398,0,8,3.602,8,8s-3.602,8-8,8s-8-3.602-8-8S251.602,228,256,228z"/>
<g style="opacity:0.3;">
	<path style="fill:#FFFFFF;" d="M256,236c2.914,0,5.359,1.656,6.766,4c0.711-1.195,1.234-2.516,1.234-4c0-4.398-3.602-8-8-8
		s-8,3.602-8,8c0,1.484,0.523,2.805,1.234,4C250.637,237.656,253.086,236,256,236z"/>
</g>
<polygon style="fill:#CCD1D9;" points="376,276 136,276 136,268 160,244 224,244 232,244 256,244 352,244 376,268 "/>
<g>
	<polygon style="fill:#FFFFFF;" points="168,244 160,244 136,268 136,276 144,276 144,269.875 	"/>
	<polygon style="fill:#FFFFFF;" points="344,244 352,244 376,268 376,276 368,276 368,269.875 	"/>
</g>
<path style="fill:#5D9CEC;" d="M248,236c0,4.398,3.602,8,8,8h-24h-8h-64l16-96h160l16,96h-96c4.398,0,8-3.602,8-8s-3.602-8-8-8
	S248,231.602,248,236z"/>
<g>
	<polygon style="fill:#656D78;" points="376,76 376,268 352,244 336,148 372,76 	"/>
	<polygon style="fill:#656D78;" points="140,76 176,148 160,244 136,268 136,76 	"/>
	<polygon style="fill:#656D78;" points="372,76 336,148 176,148 140,76 	"/>
</g>
<path style="fill:#FFCE54;" d="M244,52c-3.68,4.879-9.441,8-16,8c-11.039,0-20-8.961-20-20s8.961-20,20-20h56
	c11.039,0,20,8.961,20,20s-8.961,20-20,20c-6.563,0-12.32-3.121-16-8H244z"/>
<g style="opacity:0.5;">
	<path style="fill:#FFFFFF;" d="M216,40c0-11.039,8.961-20,20-20h-8c-11.039,0-20,8.961-20,20s8.961,20,20,20
		c1.32,0,2.578-0.211,3.82-0.453C222.789,57.621,216,49.602,216,40z"/>
</g>
<g style="opacity:0.2;">
	<path d="M296,40c0,11.039-8.961,20-20,20h8c11.039,0,20-8.961,20-20s-8.961-20-20-20c-1.32,0-2.578,0.211-3.82,0.453
		C289.211,22.379,296,30.398,296,40z"/>
</g>
<path style="fill:#AC92EC;" d="M372,76H140h-4V4h240v72H372z M304,40c0-11.039-8.961-20-20-20h-56c-11.039,0-20,8.961-20,20
	s8.961,20,20,20c6.559,0,12.32-3.121,16-8h24c3.68,4.879,9.438,8,16,8C295.039,60,304,51.039,304,40z"/>
<g>
	<rect x="184" y="260" style="fill:#ED5565;" width="24" height="16"/>
	<rect x="304" y="260" style="fill:#ED5565;" width="24" height="16"/>
</g>
<path style="fill:#E6E9ED;" d="M256,260c-4.418,0-8,3.578-8,8v8h16v-8C264,263.578,260.422,260,256,260z"/>
<path style="fill:#FFFFFF;" d="M256,260c-4.418,0-8,3.578-8,8v8c0-4.414,3.582-8,8-8c4.422,0,8,3.586,8,8v-8
	C264,263.578,260.422,260,256,260z"/>
<g style="opacity:0.3;">
	<rect x="136" y="4" style="fill:#FFFFFF;" width="8" height="72"/>
</g>
<g style="opacity:0.3;">
	<rect x="136" y="276" style="fill:#FFFFFF;" width="8" height="24"/>
</g>
<g style="opacity:0.3;">
	<rect x="136" y="300" style="fill:#FFFFFF;" width="8" height="200"/>
</g>
<g style="opacity:0.2;">
	<rect x="368" y="276" width="8" height="24"/>
</g>
<g style="opacity:0.2;">
	<rect x="368" y="300" width="8" height="200"/>
</g>
<g style="opacity:0.2;">
	<rect x="368" y="4" width="8" height="72"/>
</g>
<g style="opacity:0.5;">
	<rect x="184" y="332" style="fill:#FFFFFF;" width="8" height="65.67"/>
</g>
<g style="opacity:0.2;">
	<rect x="320" y="332" width="8" height="65.67"/>
</g>
<g style="opacity:0.3;">
	<rect x="184" y="260" style="fill:#FFFFFF;" width="24" height="8"/>
</g>
<g style="opacity:0.3;">
	<rect x="304" y="260" style="fill:#FFFFFF;" width="24" height="8"/>
</g>
<g style="opacity:0.3;">
	<path style="fill:#FFFFFF;" d="M245.289,148l-25.723,96H224h8h20.695l0.176-0.648C250.016,242.125,248,239.289,248,236
		c0-4.398,3.602-8,8-8c0.328,0,0.613,0.148,0.934,0.188L278.422,148H245.289z"/>
</g>
<g style="opacity:0.3;">
	<path style="fill:#FFFFFF;" d="M294.984,148h-8.281l-23.078,86.141C263.773,234.75,264,235.344,264,236
		c0,2.219-0.922,4.234-2.406,5.688L260.977,244h8.281L294.984,148z"/>
</g>
<g style="opacity:0.3;">
	<polygon style="fill:#5D9CEC;" points="344,132 168,132 136,268 160,244 176,148 336,148 352,244 376,268 	"/>
</g>
<g>
	<path style="fill:#3A3847;" d="M376,8H136c-2.211,0-4-1.789-4-4s1.789-4,4-4h240c2.211,0,4,1.789,4,4S378.211,8,376,8z"/>
	<path style="fill:#3A3847;" d="M368,80H144c-2.211,0-4-1.789-4-4s1.789-4,4-4h224c2.211,0,4,1.789,4,4S370.211,80,368,80z"/>
	<path style="fill:#3A3847;" d="M376,504H136c-2.211,0-4-1.789-4-4s1.789-4,4-4h240c2.211,0,4,1.789,4,4S378.211,504,376,504z"/>
	<path style="fill:#3A3847;" d="M360,512c-2.211,0-4-1.789-4-4v-8c0-2.211,1.789-4,4-4s4,1.789,4,4v8
		C364,510.211,362.211,512,360,512z"/>
	<path style="fill:#3A3847;" d="M152,512c-2.211,0-4-1.789-4-4v-8c0-2.211,1.789-4,4-4s4,1.789,4,4v8
		C156,510.211,154.211,512,152,512z"/>
	<path style="fill:#3A3847;" d="M376,304H136c-2.211,0-4-1.789-4-4v-24c0-2.211,1.789-4,4-4h240c2.211,0,4,1.789,4,4v24
		C380,302.211,378.211,304,376,304z M140,296h232v-16H140V296z"/>
	<path style="fill:#3A3847;" d="M136,272c-2.211,0-4-1.789-4-4V4c0-2.211,1.789-4,4-4s4,1.789,4,4v264
		C140,270.211,138.211,272,136,272z"/>
	<path style="fill:#3A3847;" d="M376,272c-2.211,0-4-1.789-4-4V4c0-2.211,1.789-4,4-4s4,1.789,4,4v264
		C380,270.211,378.211,272,376,272z"/>
	<path style="fill:#3A3847;" d="M136,504c-2.211,0-4-1.789-4-4V308c0-2.211,1.789-4,4-4s4,1.789,4,4v192
		C140,502.211,138.211,504,136,504z"/>
	<path style="fill:#3A3847;" d="M376,504c-2.211,0-4-1.789-4-4V308c0-2.211,1.789-4,4-4s4,1.789,4,4v192
		C380,502.211,378.211,504,376,504z"/>
	<path style="fill:#3A3847;" d="M352,248c-1.922,0-3.625-1.387-3.945-3.344L332.609,152H179.387l-15.441,92.656
		c-0.359,2.18-2.43,3.668-4.602,3.289c-2.18-0.363-3.652-2.422-3.289-4.602l16-96c0.32-1.93,1.988-3.344,3.945-3.344h160
		c1.953,0,3.625,1.414,3.945,3.344l16,96c0.367,2.18-1.109,4.238-3.289,4.602C352.438,247.984,352.219,248,352,248z"/>
	<path style="fill:#3A3847;" d="M256,264c-2.211,0-4-1.789-4-4v-16c0-2.211,1.789-4,4-4s4,1.789,4,4v16
		C260,262.211,258.211,264,256,264z"/>
	<path style="fill:#3A3847;" d="M256,248c-6.617,0-12-5.383-12-12s5.383-12,12-12s12,5.383,12,12S262.617,248,256,248z M256,232
		c-2.207,0-4,1.793-4,4s1.793,4,4,4s4-1.793,4-4S258.207,232,256,232z"/>
	<path style="fill:#3A3847;" d="M264,272c-2.211,0-4-1.789-4-4c0-2.203-1.793-4-4-4s-4,1.797-4,4c0,2.211-1.789,4-4,4s-4-1.789-4-4
		c0-6.617,5.383-12,12-12s12,5.383,12,12C268,270.211,266.211,272,264,272z"/>
	<path style="fill:#3A3847;" d="M208,264h-24c-2.211,0-4-1.789-4-4s1.789-4,4-4h24c2.211,0,4,1.789,4,4S210.211,264,208,264z"/>
	<path style="fill:#3A3847;" d="M184,272c-2.211,0-4-1.789-4-4v-8c0-2.211,1.789-4,4-4s4,1.789,4,4v8
		C188,270.211,186.211,272,184,272z"/>
	<path style="fill:#3A3847;" d="M208,272c-2.211,0-4-1.789-4-4v-8c0-2.211,1.789-4,4-4s4,1.789,4,4v8
		C212,270.211,210.211,272,208,272z"/>
	<path style="fill:#3A3847;" d="M328,264h-24c-2.211,0-4-1.789-4-4s1.789-4,4-4h24c2.211,0,4,1.789,4,4S330.211,264,328,264z"/>
	<path style="fill:#3A3847;" d="M304,272c-2.211,0-4-1.789-4-4v-8c0-2.211,1.789-4,4-4s4,1.789,4,4v8
		C308,270.211,306.211,272,304,272z"/>
	<path style="fill:#3A3847;" d="M328,272c-2.211,0-4-1.789-4-4v-8c0-2.211,1.789-4,4-4s4,1.789,4,4v8
		C332,270.211,330.211,272,328,272z"/>
	<path style="fill:#3A3847;" d="M368,264c-1.023,0-2.047-0.391-2.828-1.172l-16-16c-1.563-1.563-1.563-4.094,0-5.656
		s4.094-1.563,5.656,0l16,16c1.563,1.563,1.563,4.094,0,5.656C370.047,263.609,369.023,264,368,264z"/>
	<path style="fill:#3A3847;" d="M144,264c-1.023,0-2.047-0.391-2.828-1.172c-1.563-1.563-1.563-4.094,0-5.656l16-16
		c1.563-1.563,4.094-1.563,5.656,0s1.563,4.094,0,5.656l-16,16C146.047,263.609,145.023,264,144,264z"/>
	<path style="fill:#3A3847;" d="M336,152c-0.609,0-1.219-0.137-1.789-0.422c-1.977-0.988-2.773-3.391-1.789-5.367l32-64
		c0.992-1.98,3.391-2.766,5.367-1.789c1.977,0.988,2.773,3.391,1.789,5.367l-32,64C338.875,151.191,337.469,152,336,152z"/>
	<path style="fill:#3A3847;" d="M176.004,152c-1.469,0-2.879-0.809-3.582-2.211l-32-64c-0.988-1.977-0.188-4.379,1.789-5.367
		c1.977-0.977,4.371-0.191,5.367,1.789l32,64c0.988,1.977,0.188,4.379-1.789,5.367C177.215,151.863,176.605,152,176.004,152z"/>
	<path style="fill:#3A3847;" d="M232,248h-72c-2.211,0-4-1.789-4-4s1.789-4,4-4h72c2.211,0,4,1.789,4,4S234.211,248,232,248z"/>
	<path style="fill:#3A3847;" d="M352,248h-72c-2.211,0-4-1.789-4-4s1.789-4,4-4h72c2.211,0,4,1.789,4,4S354.211,248,352,248z"/>
	<path style="fill:#3A3847;" d="M328,400H184c-2.211,0-4-1.789-4-4v-64c0-2.211,1.789-4,4-4h144c2.211,0,4,1.789,4,4v64
		C332,398.211,330.211,400,328,400z M188,392h136v-56H188V392z"/>
	<path style="fill:#3A3847;" d="M296,384c-2.211,0-4-1.789-4-4v-32c0-2.211,1.789-4,4-4s4,1.789,4,4v32
		C300,382.211,298.211,384,296,384z"/>
	<path style="fill:#3A3847;" d="M296,384c-11.031,0-20-8.969-20-20s8.969-20,20-20s20,8.969,20,20S307.031,384,296,384z M296,352
		c-6.617,0-12,5.383-12,12s5.383,12,12,12s12-5.383,12-12S302.617,352,296,352z"/>
	<path style="fill:#3A3847;" d="M208,376c-6.617,0-12-5.383-12-12s5.383-12,12-12s12,5.383,12,12S214.617,376,208,376z M208,360
		c-2.207,0-4,1.797-4,4s1.793,4,4,4s4-1.797,4-4S210.207,360,208,360z"/>
	<path style="fill:#3A3847;" d="M208,384c-2.211,0-4-1.789-4-4v-8c0-2.211,1.789-4,4-4s4,1.789,4,4v8
		C212,382.211,210.211,384,208,384z"/>
	<path style="fill:#3A3847;" d="M228,64c-13.234,0-24-10.766-24-24s10.766-24,24-24c2.211,0,4,1.789,4,4s-1.789,4-4,4
		c-8.824,0-16,7.176-16,16s7.176,16,16,16c5.082,0,9.746-2.332,12.797-6.398c1.324-1.766,3.836-2.117,5.598-0.801
		c1.77,1.324,2.129,3.832,0.801,5.598C242.621,60.5,235.625,64,228,64z"/>
	<path style="fill:#3A3847;" d="M284.008,64c-7.617,0-14.609-3.492-19.195-9.578c-1.328-1.762-0.977-4.27,0.789-5.602
		c1.773-1.328,4.273-0.969,5.602,0.789C274.266,53.672,278.93,56,284.008,56C292.828,56,300,48.824,300,40s-7.172-16-15.992-16
		c-2.211,0-4-1.789-4-4s1.789-4,4-4C297.234,16,308,26.766,308,40S297.234,64,284.008,64z"/>
	<path style="fill:#3A3847;" d="M284.008,24H228c-2.211,0-4-1.789-4-4s1.789-4,4-4h56.008c2.211,0,4,1.789,4,4
		S286.219,24,284.008,24z"/>
	<path style="fill:#3A3847;" d="M268.023,56h-24.035c-2.211,0-4-1.789-4-4s1.789-4,4-4h24.035c2.211,0,4,1.789,4,4
		S270.234,56,268.023,56z"/>
	<path style="fill:#3A3847;" d="M228,52c-2.211,0-4-1.789-4-4V32c0-2.211,1.789-4,4-4s4,1.789,4,4v16C232,50.211,230.211,52,228,52z
		"/>
	<path style="fill:#3A3847;" d="M236,44h-16c-2.211,0-4-1.789-4-4s1.789-4,4-4h16c2.211,0,4,1.789,4,4S238.211,44,236,44z"/>
	<path style="fill:#3A3847;" d="M288.25,40c-2.211,0-4.047-1.789-4.047-4s1.75-4,3.969-4h0.078c2.203,0,4,1.789,4,4
		S290.453,40,288.25,40z"/>
	<path style="fill:#3A3847;" d="M280.25,48c-2.211,0-4.047-1.789-4.047-4s1.75-4,3.969-4h0.078c2.203,0,4,1.789,4,4
		S282.453,48,280.25,48z"/>
	<path style="fill:#3A3847;" d="M360,488H152c-2.211,0-4-1.789-4-4s1.789-4,4-4h208c2.211,0,4,1.789,4,4S362.211,488,360,488z"/>
</g>
<g>
</g>
<g>
</g>
<g>
</g>
<g>
</g>
<g>
</g>
<g>
</g>
<g>
</g>
<g>
</g>
<g>
</g>
<g>
</g>
<g>
</g>
<g>
</g>
<g>
</g>
<g>
</g>
<g>
</g>
</svg>
